<?xml version="1.0" encoding="UTF-8"?>
<svg version="1.1" xmlns="http://www.w3.org/2000/svg" width="2000" height="2000">
<path d="M0 0 C660 0 1320 0 2000 0 C2000 660 2000 1320 2000 2000 C1340 2000 680 2000 0 2000 C0 1340 0 680 0 0 Z " fill="#353F44" transform="translate(0,0)"/>
<path d="M0 0 C22.44 0 44.88 0 68 0 C68 116.49 68 232.98 68 353 C45.56 353 23.12 353 0 353 C-0.33 342.77 -0.66 332.54 -1 322 C-3.64 324.97 -6.28 327.94 -9 331 C-31.85547646 352.22977311 -58.44301673 360.11390559 -89.05566406 359.14794922 C-112.97447549 357.94605869 -135.33001216 348.08675693 -153 332 C-153.75410156 331.33871094 -154.50820313 330.67742187 -155.28515625 329.99609375 C-171.55267722 314.8761933 -182.71037278 292.18682795 -187.625 270.75 C-187.93050781 269.49123047 -187.93050781 269.49123047 -188.2421875 268.20703125 C-191.52829178 254.19895853 -192.4089959 240.5130752 -192.375 226.1875 C-192.37412384 225.2850354 -192.37324768 224.3825708 -192.37234497 223.45275879 C-192.24802631 184.54316771 -182.39390727 148.64381925 -154.6875 120.25 C-133.02982816 98.89896868 -106.07762717 90.71636659 -76.24609375 90.68310547 C-60.89487796 90.83791728 -48.6798803 93.85566461 -35 101 C-34.05640625 101.46277344 -33.1128125 101.92554688 -32.140625 102.40234375 C-21.65158985 107.75056648 -6.47506468 118.04987064 -1 129 C-0.67 86.43 -0.34 43.86 0 0 Z " fill="#A5A5A5" transform="translate(651,810)"/>
<path d="M0 0 C82.5 0 165 0 250 0 C250 21.12 250 42.24 250 64 C192.58 64 135.16 64 76 64 C76 89.41 76 114.82 76 141 C132.43 141 188.86 141 247 141 C247 162.45 247 183.9 247 206 C190.57 206 134.14 206 76 206 C76 233.06 76 260.12 76 288 C133.75 288 191.5 288 251 288 C251 309.45 251 330.9 251 353 C168.17 353 85.34 353 0 353 C0 236.51 0 120.02 0 0 Z " fill="#A5A5A5" transform="translate(922,810)"/>
<path d="M0 0 C28.38 0 56.76 0 86 0 C88.51625 6.991875 91.0325 13.98375 93.625 21.1875 C102.7542419 46.54951135 111.89765999 71.90640292 121.04454231 97.26205635 C124.35790113 106.44687142 127.67034836 115.63201468 130.98198318 124.81745148 C133.09202679 130.67001404 135.20222047 136.5225225 137.3125 142.375 C137.54279907 143.0136927 137.77309814 143.65238541 138.01037598 144.31043243 C144.58425591 162.54149825 151.1688915 180.76863899 157.76501465 198.9916687 C166.2072514 222.31676175 174.60480278 245.65794294 183 269 C185.7924849 262.15299801 188.397774 255.25833856 190.87890625 248.29296875 C191.24302109 247.27564163 191.60713593 246.25831451 191.98228455 245.2101593 C193.17739691 241.86988062 194.36992989 238.52868709 195.5625 235.1875 C196.40995904 232.8176378 197.25761896 230.44784743 198.10546875 228.078125 C199.86552357 223.15831794 201.62471638 218.23820394 203.38330078 213.31787109 C207.0244128 203.13247334 210.67603748 192.95084802 214.3276062 182.76919556 C216.30223789 177.26297644 218.27607602 171.75647286 220.25 166.25 C221.04166293 164.04166533 221.83332959 161.83333199 222.625 159.625 C223.016875 158.531875 223.40875 157.43875 223.8125 156.3125 C227.37500002 146.37499994 227.37500002 146.37499994 228.56246948 143.06259155 C229.35424332 140.85395499 230.14601171 138.64531649 230.93777466 136.43667603 C232.91525706 130.92046603 234.89283362 125.40428982 236.87060547 119.88818359 C240.45321501 109.89581167 244.03510981 99.9031863 247.61354065 89.90931702 C258.35213808 59.91872148 269.15092829 29.95085608 280 0 C308.38 0 336.76 0 366 0 C362.62512803 11.24957323 362.62512803 11.24957323 360.98901367 15.46313477 C360.61890671 16.42188004 360.24879974 17.38062531 359.86747742 18.36842346 C359.47163956 19.38250778 359.0758017 20.3965921 358.66796875 21.44140625 C358.03209587 23.08416786 358.03209587 23.08416786 357.38337708 24.76011658 C355.98820924 28.36226224 354.58781977 31.96235438 353.1875 35.5625 C352.1977168 38.11425386 351.20916519 40.66648413 350.22070312 43.21875 C348.42629951 47.85106229 346.63071973 52.48291507 344.8335743 57.11416435 C340.32541791 68.73223459 335.83965365 80.35892416 331.35531616 91.98620605 C329.07377533 97.90133094 326.79074474 103.81588076 324.5078125 109.73046875 C324.05437973 110.90529816 323.60094696 112.08012756 323.1337738 113.29055786 C320.36435603 120.46588571 317.59425271 127.64094853 314.82366943 134.81582642 C305.53453656 158.87162608 296.25248011 182.93007589 287 207 C279.14814309 227.42626385 271.27932901 247.84593222 263.39331055 268.2590332 C258.78671414 280.18409 254.18612386 292.11137675 249.60003662 304.0443325 C248.07610282 308.00860529 246.5505756 311.9722652 245.02499008 315.9359026 C243.80485049 319.10641731 242.58584013 322.27735662 241.3694458 325.4493103 C240.02633612 328.95032303 238.67957469 332.44991066 237.33203125 335.94921875 C236.93618332 336.98397339 236.54033539 338.01872803 236.13249207 339.08483887 C235.76239517 340.04386108 235.39229828 341.0028833 235.01098633 341.9909668 C234.69317703 342.81831833 234.37536774 343.64566986 234.04792786 344.49809265 C232.83531236 347.39318853 231.40371055 350.19257891 230 353 C198.98 353 167.96 353 136 353 C125.33924736 325.82381909 114.74722086 298.62372189 104.24755859 271.38500977 C103.31219254 268.95848913 102.3768085 266.53197543 101.44140625 264.10546875 C100.98175476 262.91307083 100.52210327 261.72067291 100.04852295 260.49214172 C95.54836957 248.82187102 91.02596159 237.16028055 86.5 225.5 C79.7111838 208.00692492 72.94232414 190.50622906 66.1875 173 C65.72942963 171.812854 65.27135925 170.62570801 64.79940796 169.40258789 C61.06354365 159.7201538 57.32869016 150.03732987 53.59387207 140.35449219 C43.41258754 113.95902788 33.22770392 87.56501947 23 61.1875 C22.61142822 60.18500214 22.22285645 59.18250427 21.82250977 58.14962769 C17.79853979 47.76851746 13.7653114 37.39118689 9.70703125 27.0234375 C8.71999503 24.49847734 7.73315038 21.97344238 6.74633789 19.44839478 C5.83670191 17.12433429 4.92334286 14.80176145 4.00976562 12.47924805 C3.47118198 11.10211811 2.93275986 9.72492499 2.39453125 8.34765625 C1.92893799 7.16179932 1.46334473 5.97594238 0.98364258 4.75415039 C0 2 0 2 0 0 Z " fill="#A5A5A5" transform="translate(1194,810)"/>
<path d="M0 0 C2.79173055 -0.02690104 5.58320348 -0.04679053 8.375 -0.0625 C9.1690625 -0.07087891 9.963125 -0.07925781 10.78125 -0.08789062 C16.7734375 -0.11328125 16.7734375 -0.11328125 19 1 C19.57090825 3.99500283 19.89543245 6.99095787 20.2421875 10.01953125 C21.13781722 13.5420337 22.0909855 14.85250762 25 17 C28.42011229 17.85641836 31.56254784 17.76574137 35 17 C37.18966929 15.22188301 38.36515677 13.3560976 40 11 C43.11196441 9.72164118 44.94290557 10.05264273 48 11.3125 C48.6909375 11.59351563 49.381875 11.87453125 50.09375 12.1640625 C52.1002968 13.04398261 54.07292011 13.95616506 56 15 C55.85175781 15.7115625 55.70351563 16.423125 55.55078125 17.15625 C53.69670842 25.72164635 53.69670842 25.72164635 55.3125 34.0625 C59.22737206 36.88484963 63.27742231 37.39615896 68 38 C68 37.34 68 36.68 68 36 C70.47244615 34.83245599 72.36637928 33.9813641 75.125 34.0625 C77.87613815 35.43806907 78.70030249 37.27063524 80 40 C80 40.99 80 41.98 80 43 C80.66 43 81.32 43 82 43 C84 46 84 46 84 48.4375 C82.584134 52.06565663 80.27709482 53.0080404 77 55 C74.54047777 56.62580082 74.54047777 56.62580082 73 59 C72.67131297 61.75672991 72.81379855 64.20697819 73 67 C78.88662826 70.92441884 84.00410526 71.96357115 91 73 C91 78.94 91 84.88 91 91 C88.00520833 91.390625 85.01041667 91.78125 82.015625 92.171875 C78.54731141 93.12431345 77.21353502 94.20722217 75 97 C73.78739123 100.63782632 73.60455448 103.17735999 74 107 C76.59907595 110.24884494 79.13997719 112.42739812 83 114 C82.53680089 118.72463088 81.90108294 122.17057052 79 126 C78.34 126 77.68 126 77 126 C76.67 126.99 76.34 127.98 76 129 C75.071875 128.835 74.14375 128.67 73.1875 128.5 C63.99561336 127.12183252 63.99561336 127.12183252 55.3125 129.4375 C53.37372949 133.22271862 53.36829194 136.82778865 54 141 C54.66270727 142.33530569 55.32893655 143.66887414 56 145 C55.625 147.75 55.625 147.75 55 150 C54.34 150 53.68 150 53 150 C52.67 150.99 52.34 151.98 52 153 C47.94659058 155.10465489 44.58546699 156.62562551 40 156 C38.55078125 154.25 38.55078125 154.25 37.3125 152 C35.48420778 149.30993463 34.69181352 148.17619626 31.5 147.36328125 C26.62393908 147.23040909 26.62393908 147.23040909 22.26953125 149.16015625 C20.49396431 151.73336249 20.28351582 154.04256245 19.875 157.125 C19.08333333 162.91666667 19.08333333 162.91666667 18 164 C15.34177343 164.12658222 12.72112576 164.18520214 10.0625 164.1875 C9.32064453 164.19974609 8.57878906 164.21199219 7.81445312 164.22460938 C5.87486371 164.22988478 3.9357629 164.12188902 2 164 C-0.68092691 161.31907309 -0.38670257 159.60832637 -0.625 155.875 C-0.73714844 154.23144531 -0.73714844 154.23144531 -0.8515625 152.5546875 C-0.90054688 151.71164062 -0.94953125 150.86859375 -1 150 C-5.56885334 148.17245867 -10.1142572 146.89131221 -15 148 C-18.32065981 150.08179827 -21.23167463 152.46334926 -23 156 C-26.89765319 155.45865928 -28.93334609 154.39582337 -32 152 C-32.886875 151.690625 -33.77375 151.38125 -34.6875 151.0625 C-37 150 -37 150 -37.875 148.0625 C-38 146 -38 146 -37 143 C-36.85640666 141.19127624 -36.77953879 139.37667423 -36.75 137.5625 C-36.71132813 136.14130859 -36.71132813 136.14130859 -36.671875 134.69140625 C-37.0600629 131.50734121 -37.64868257 130.17827675 -40 128 C-42.472385 127.48006537 -42.472385 127.48006537 -45.125 127.6875 C-46.01445313 127.71199219 -46.90390625 127.73648437 -47.8203125 127.76171875 C-49.97589735 127.76720513 -49.97589735 127.76720513 -51 129 C-54.1875 129.625 -54.1875 129.625 -58 129 C-61.55084407 125.44915593 -63.69607355 121.6108102 -64.625 116.6875 C-63.8505223 113.3572459 -62.69371159 112.0598971 -60 110 C-59.34 110 -58.68 110 -58 110 C-58 109.34 -58 108.68 -58 108 C-56.515 107.01 -56.515 107.01 -55 106 C-54.5731629 102.22960561 -54.70665236 99.69477073 -56.1875 96.1875 C-58.27211886 93.67158069 -59.90108642 92.92129863 -63 92 C-63 91.34 -63 90.68 -63 90 C-63.63808594 90.01160156 -64.27617188 90.02320313 -64.93359375 90.03515625 C-65.75988281 90.04417969 -66.58617187 90.05320312 -67.4375 90.0625 C-68.67306641 90.07990234 -68.67306641 90.07990234 -69.93359375 90.09765625 C-72 90 -72 90 -73 89 C-73.07325168 86.13732433 -73.09238205 83.299281 -73.0625 80.4375 C-73.05798828 79.63119141 -73.05347656 78.82488281 -73.04882812 77.99414062 C-73.03700518 75.99606244 -73.01906914 73.99802217 -73 72 C-72.27554688 71.97421875 -71.55109375 71.9484375 -70.8046875 71.921875 C-64.11110006 71.52918454 -59.85245248 70.85245248 -55 66 C-54.76807135 64.48530552 -54.58784762 62.96245438 -54.4375 61.4375 C-54.35371094 60.61121094 -54.26992188 59.78492188 -54.18359375 58.93359375 C-54.09271484 57.97646484 -54.09271484 57.97646484 -54 57 C-54.58265625 56.73445312 -55.1653125 56.46890625 -55.765625 56.1953125 C-58.06174228 54.96697004 -59.80356018 53.59685061 -61.75 51.875 C-62.36359375 51.33617187 -62.9771875 50.79734375 -63.609375 50.2421875 C-64.06828125 49.83226562 -64.5271875 49.42234375 -65 49 C-64.40722419 44.25779349 -62.56522805 40.00706312 -60 36 C-56.77626323 33.85084215 -55.73296326 33.61713197 -52 34 C-51.34 34.66 -50.68 35.32 -50 36 C-45.49752857 36.33980916 -42.02090806 36.12871603 -38 34 C-37.505 33.01 -37.505 33.01 -37 32 C-36.34 32 -35.68 32 -35 32 C-34.69828066 26.16675935 -35.25875551 23.24411989 -38 18 C-37.8531288 15.42975404 -37.36933891 14.42320084 -35.6875 12.49609375 C-32.87625239 10.0037145 -29.61360335 8.90340084 -26 8 C-23.18256953 8.24499395 -21.50159088 8.74920456 -19 10 C-18.26924352 12.3140622 -17.59861742 14.64828869 -17 17 C-15.2709226 17.02725341 -13.54171824 17.04650987 -11.8125 17.0625 C-10.36810547 17.07990234 -10.36810547 17.07990234 -8.89453125 17.09765625 C-5.62396939 17.0660089 -5.62396939 17.0660089 -1 16 C-0.67 10.72 -0.34 5.44 0 0 Z " fill="#E8957D" transform="translate(808,928)"/>
<path d="M0 0 C3.8644368 2.80507382 7.53590073 5.71204138 11 9 C11.50526498 9.47750041 12.01052996 9.95500082 12.531106 10.44697094 C17.07838675 15.16737623 17.88237442 18.64283891 17.82397461 25.08129883 C17.8393074 25.96358658 17.8546402 26.84587433 17.87043762 27.75489807 C17.91195742 30.65623947 17.90926971 33.55542905 17.90234375 36.45703125 C17.9140157 38.48574101 17.92702199 40.5144435 17.94129944 42.5431366 C17.9636505 46.79079976 17.96284074 51.03771482 17.94702148 55.28540039 C17.92965499 60.70994292 17.98039027 66.13140629 18.0500555 71.55543995 C18.09441463 75.74482406 18.09686332 79.93347521 18.08752632 84.1230526 C18.08905921 86.12164081 18.10464615 88.1202725 18.13496208 90.11863136 C18.36824109 107.64839476 18.36824109 107.64839476 12.73266602 114.0690918 C10.40040588 116.17948914 10.40040588 116.17948914 8 118 C6.74067909 118.99837639 6.74067909 118.99837639 5.45591736 120.016922 C-11.73820107 133.15328261 -31.78738259 137.86614368 -53.01171875 135.69140625 C-55.40212563 135.25643688 -57.67273081 134.69619164 -60 134 C-60.88816406 133.74347656 -61.77632812 133.48695313 -62.69140625 133.22265625 C-69.69201751 130.95402979 -75.21631735 127.50061312 -81 123 C-81.84046875 122.35675781 -82.6809375 121.71351563 -83.546875 121.05078125 C-97.14771089 109.68065571 -104.05793174 90.18821165 -106 73 C-107.44988412 50.33045771 -104.19077784 28.3230811 -90 10 C-89.56300781 9.38640625 -89.12601563 8.7728125 -88.67578125 8.140625 C-67.77555716 -19.22423297 -26.37332523 -17.14780574 0 0 Z " fill="#353F44" transform="translate(634,973)"/>
<path d="M0 0 C0 0.66 0 1.32 0 2 C0.53625 2.268125 1.0725 2.53625 1.625 2.8125 C2.800625 3.4003125 2.800625 3.4003125 4 4 C4.928125 4.4125 5.85625 4.825 6.8125 5.25 C14.40627935 9.41913376 20.2327309 15.80575754 25 23 C25 23.99 25 24.98 25 26 C25.66 26 26.32 26 27 26 C27.495 30.455 27.495 30.455 28 35 C28.66 35 29.32 35 30 35 C30 40.94 30 46.88 30 53 C29.34 53 28.68 53 28 53 C27.34 55.97 26.68 58.94 26 62 C25.34 62 24.68 62 24 62 C24.061875 62.886875 24.12375 63.77375 24.1875 64.6875 C23.84062471 70.8156301 20.26229072 73.91730018 16 78 C7.20112882 85.31173802 -1.39588162 92.11433076 -13 94 C-14.155 94.2165625 -15.31 94.433125 -16.5 94.65625 C-27.31618096 96.26808891 -34.44781967 93.39543125 -43.35620117 87.26611328 C-45.78920728 85.39212402 -47.86977995 83.2052278 -50 81 C-50.928125 80.46375 -51.85625 79.9275 -52.8125 79.375 C-59.57723921 74.33460608 -64.29146921 67.25789884 -66 59 C-67.4369015 44.37115006 -66.51443047 30.32768802 -60 17 C-57.86328125 14.65234375 -57.86328125 14.65234375 -56 13 C-55.649375 12.278125 -55.29875 11.55625 -54.9375 10.8125 C-54 9 -54 9 -51 8 C-50.14728516 7.09507812 -50.14728516 7.09507812 -49.27734375 6.171875 C-36.74073787 -5.78413335 -15.21684545 -5.96820116 0 0 Z " fill="#3B4145" transform="translate(836,965)"/>
<path d="M0 0 C2.27756441 1.84374262 3.36044177 3.48942646 5 6 C5.763125 6.70125 6.52625 7.4025 7.3125 8.125 C9 10 9 10 9 14 C9.66 14 10.32 14 11 14 C15.17932542 21.72428895 16.11193586 28.03905539 14.1875 36.625 C13.795625 37.73875 13.40375 38.8525 13 40 C12.74283203 40.93585937 12.74283203 40.93585937 12.48046875 41.890625 C10.43371551 48.5986937 6.00569498 54.44798465 0.0625 58.234375 C-3.14260755 59.69877759 -5.44667562 60 -9 60 C-9 60.66 -9 61.32 -9 62 C-14.61 62 -20.22 62 -26 62 C-26 61.34 -26 60.68 -26 60 C-27.03125 59.9175 -28.0625 59.835 -29.125 59.75 C-36.20877567 58.37894665 -39.93269328 54.23693518 -44.38671875 48.90234375 C-45.91803631 47.00422618 -45.91803631 47.00422618 -47.59765625 45.58984375 C-51.47871166 41.18987286 -52.01856222 33.94284596 -51.96484375 28.3203125 C-51.72225774 25.19744465 -51.41556697 22.10423517 -51 19 C-50.01 18.67 -49.02 18.34 -48 18 C-48 17.01 -48 16.02 -48 15 C-47.34 15 -46.68 15 -46 15 C-45.7525 13.7315625 -45.7525 13.7315625 -45.5 12.4375 C-42.84326581 6.34915081 -36.92567148 1.88686559 -31 -1 C-21.25526189 -4.77857192 -9.59645553 -3.92914237 0 0 Z " fill="#E2927B" transform="translate(835,981)"/>
<path d="M0 0 C0.74636719 0.00128906 1.49273438 0.00257813 2.26171875 0.00390625 C6.38533569 0.06959218 9.81601158 0.33137748 13.5 2.375 C14.89712274 4.33097184 16.23779907 6.32936401 17.5 8.375 C18.16 8.705 18.82 9.035 19.5 9.375 C20.86092301 12.94957625 20.63294485 16.6597255 20.625 20.4375 C20.62886719 22.28021484 20.62886719 22.28021484 20.6328125 24.16015625 C20.5 27.375 20.5 27.375 19.5 30.375 C18.51 30.375 17.52 30.375 16.5 30.375 C16.29375 30.931875 16.0875 31.48875 15.875 32.0625 C13.44471007 36.1498058 9.98614354 38.87961882 5.5 40.375 C-1.99966053 41.04382937 -7.42505589 40.99195752 -13.5 36.375 C-17.79807584 32.63372034 -20.23372574 29.92578637 -20.84375 24.08203125 C-21.31747088 12.27453824 -21.31747088 12.27453824 -17.3125 7.6875 C-15.51953125 5.98828125 -15.51953125 5.98828125 -13.5 4.375 C-12.40751953 3.29412109 -12.40751953 3.29412109 -11.29296875 2.19140625 C-7.45603271 -0.30394376 -4.47309263 -0.14678542 0 0 Z " fill="#3A4145" transform="translate(817.5,989.625)"/>
<path d="M0 0 C-3.11255409 1.00046382 -4.88850055 0.88803795 -8 0 C-20.69766532 -1.13397644 -31.31392449 -0.17638244 -43 5 C-44.08667969 5.3403125 -45.17335938 5.680625 -46.29296875 6.03125 C-49.13685464 6.73982002 -49.13685464 6.73982002 -50.375 9.125 C-50.58125 9.74375 -50.7875 10.3625 -51 11 C-51.99 11 -52.98 11 -54 11 C-54.103125 11.598125 -54.20625 12.19625 -54.3125 12.8125 C-55.10494321 15.33391022 -56.11943508 16.19465768 -58 18 C-59.17574711 20.09989652 -59.17574711 20.09989652 -60 22 C-60.33 21.34 -60.66 20.68 -61 20 C-59.8125 17.75 -59.8125 17.75 -58 15 C-57.34 13.9275 -56.68 12.855 -56 11.75 C-54 9 -54 9 -51 8 C-50.43152344 7.39671875 -49.86304688 6.7934375 -49.27734375 6.171875 C-36.74073787 -5.78413335 -15.21684545 -5.96820116 0 0 Z " fill="#83645D" transform="translate(836,965)"/>
<path d="M0 0 C0.66 0.33 1.32 0.66 2 1 C1.360625 1.598125 0.72125 2.19625 0.0625 2.8125 C-2.60534627 5.64203393 -2.9481301 7.5331709 -3.375 11.375 C-3.31766441 15.12281387 -3.31766441 15.12281387 -0.75 17.8125 C1.48833917 19.59299706 3.36931717 20.92824033 6 22 C5.53680089 26.72463088 4.90108294 30.17057052 2 34 C1.34 34 0.68 34 0 34 C-0.33 34.99 -0.66 35.98 -1 37 C-2.36125 36.7525 -2.36125 36.7525 -3.75 36.5 C-9.13782475 35.71126689 -14.56912556 35.91974077 -20 36 C-19.67 35.01 -19.34 34.02 -19 33 C-12.71739294 32.76731085 -7.11980533 33.59545452 -1 35 C-0.71125 34.21625 -0.4225 33.4325 -0.125 32.625 C1 30 1 30 3 28 C3.64767793 25.42938689 3.64767793 25.42938689 4 23 C3.2575 22.731875 2.515 22.46375 1.75 22.1875 C-3.11538462 20.08653846 -3.11538462 20.08653846 -5 18 C-6.08227128 13.94540397 -6.30964661 10.26673614 -5.3125 6.1875 C-3.83038495 3.71730826 -2.13607905 1.92247115 0 0 Z " fill="#A47467" transform="translate(885,1020)"/>
<path d="M0 0 C0.1546875 0.9590625 0.1546875 0.9590625 0.3125 1.9375 C0.6528125 2.9584375 0.6528125 2.9584375 1 4 C1.99 4.33 2.98 4.66 4 5 C4 5.66 4 6.32 4 7 C8.02992782 6.44687265 12.02022924 5.8441938 16 5 C14.34387276 8.31225448 11.35502069 8.76982575 8 10 C5.43359375 10.3359375 5.43359375 10.3359375 3 10 C1.55078125 8.25 1.55078125 8.25 0.3125 6 C-1.51579222 3.30993463 -2.30818648 2.17619626 -5.5 1.36328125 C-10.37606092 1.23040909 -10.37606092 1.23040909 -14.73046875 3.16015625 C-16.50603569 5.73336249 -16.71648418 8.04256245 -17.125 11.125 C-17.91666667 16.91666667 -17.91666667 16.91666667 -19 18 C-21.69654854 18.07319621 -24.36691458 18.09242537 -27.0625 18.0625 C-27.82111328 18.05798828 -28.57972656 18.05347656 -29.36132812 18.04882812 C-31.24091871 18.0370068 -33.12046899 18.01907078 -35 18 C-35 17.67 -35 17.34 -35 17 C-30.05 17 -25.1 17 -20 17 C-19.9690625 14.215625 -19.9690625 14.215625 -19.9375 11.375 C-19.55758261 7.15091854 -19.20754864 4.27352058 -16.1875 1.1875 C-11.26682792 -2.34344251 -5.63105352 -1.01710326 0 0 Z " fill="#8E6960" transform="translate(845,1074)"/>
<path d="M0 0 C0.99 0.33 1.98 0.66 3 1 C2.71125 1.5878125 2.4225 2.175625 2.125 2.78125 C-0.98478015 10.29655202 -1.41296566 17.17820229 -1.4375 25.25 C-1.44716797 26.27931641 -1.45683594 27.30863281 -1.46679688 28.36914062 C-1.39807027 34.62326196 -0.55770752 39.29037009 2 45 C2.391875 45.99 2.78375 46.98 3.1875 48 C3.455625 48.66 3.72375 49.32 4 50 C1.57215508 49.0492246 0.26897021 48.47651052 -1.03369141 46.16870117 C-3.19730374 38.94522448 -3.46042451 31.87555381 -3.39111328 24.38549805 C-3.37494301 22.30516839 -3.39108239 20.2267575 -3.41015625 18.14648438 C-3.4081749 16.80207912 -3.40433346 15.45767504 -3.3984375 14.11328125 C-3.39505371 12.91485596 -3.39166992 11.71643066 -3.38818359 10.48168945 C-2.93399905 6.40802547 -1.77311455 3.67271244 0 0 Z " fill="#A97768" transform="translate(772,987)"/>
<path d="M0 0 C0.33 0 0.66 0 1 0 C1.04898438 1.12277344 1.09796875 2.24554687 1.1484375 3.40234375 C1.57848792 14.85556197 1.57848792 14.85556197 4 26 C4.99 26.33 5.98 26.66 7 27 C8.75 29.9375 8.75 29.9375 10 33 C9.67 33.66 9.34 34.32 9 35 C7.79557292 33.53515625 6.59114583 32.0703125 5.38671875 30.60546875 C4.04054231 28.97160626 4.04054231 28.97160626 2.44140625 27.63671875 C-1.45336639 23.21419914 -2 16.01236432 -2 10.35546875 C-1.36565836 1.36565836 -1.36565836 1.36565836 0 0 Z " fill="#AA7769" transform="translate(785,999)"/>
<path d="M0 0 C0.33 0 0.66 0 1 0 C2 3 3 6 4 9 C4.66 9 5.32 9 6 9 C9.57633586 12.3208833 11.3651059 14.61912385 11.6875 19.5625 C11.49367816 23.033673 10.82545706 24.77235602 8.25 27.125 C5 29 5 29 2.625 28.8125 C2.08875 28.544375 1.5525 28.27625 1 28 C1.969375 27.360625 2.93875 26.72125 3.9375 26.0625 C6.76036269 24.3034741 6.76036269 24.3034741 8 23 C8.23192865 21.48530552 8.41215238 19.96245438 8.5625 18.4375 C8.64628906 17.61121094 8.73007812 16.78492188 8.81640625 15.93359375 C8.87699219 15.29550781 8.93757812 14.65742187 9 14 C8.41734375 13.73445312 7.8346875 13.46890625 7.234375 13.1953125 C4.93825772 11.96697004 3.19643982 10.59685061 1.25 8.875 C0.63640625 8.33617187 0.0228125 7.79734375 -0.609375 7.2421875 C-1.06828125 6.83226562 -1.5271875 6.42234375 -2 6 C-1.125 1.125 -1.125 1.125 0 0 Z " fill="#A37166" transform="translate(745,971)"/>
<path d="M0 0 C0.66 0.33 1.32 0.66 2 1 C-0.68657635 3.68657635 -3.46664114 4.65976043 -7 6 C-8.32 6 -9.64 6 -11 6 C-11 6.66 -11 7.32 -11 8 C-16.61 8 -22.22 8 -28 8 C-28 7.34 -28 6.68 -28 6 C-20.08 5.505 -20.08 5.505 -12 5 C-12 4.34 -12 3.68 -12 3 C-10.4221875 2.814375 -10.4221875 2.814375 -8.8125 2.625 C-5.09963555 2.15746422 -5.09963555 2.15746422 -2.1875 0.875 C-1.465625 0.58625 -0.74375 0.2975 0 0 Z " fill="#AD786B" transform="translate(837,1035)"/>
<path d="M0 0 C0.99257813 0.16242188 1.98515625 0.32484375 3.0078125 0.4921875 C6.963251 1.05497739 10.88444161 1.15193723 14.875 1.125 C15.57173828 1.12306641 16.26847656 1.12113281 16.98632812 1.11914062 C22.06305666 1.07663778 26.97840894 0.71737015 32 0 C31 2 31 2 27.9375 3.0625 C20.44239794 4.73260426 9.46851914 7.09540576 2.5 3.0625 C1.675 2.381875 0.85 1.70125 0 1 C0 0.67 0 0.34 0 0 Z " fill="#8A6860" transform="translate(800,1055)"/>
<path d="M0 0 C6.63701178 7.55246168 7.49921585 13.35605421 7.29296875 23.24609375 C6.92178047 28.0022529 6.29396049 32.75192503 4 37 C2.515 37.495 2.515 37.495 1 38 C1.20496094 37.41992188 1.40992188 36.83984375 1.62109375 36.2421875 C4.55201636 27.7439143 7.25396466 18.16533568 3.5 9.5625 C3.005 8.716875 2.51 7.87125 2 7 C2 6.01 2 5.02 2 4 C1.34 4 0.68 4 0 4 C0 2.68 0 1.36 0 0 Z " fill="#8C685E" transform="translate(844,991)"/>
<path d="M0 0 C0.33 0.66 0.66 1.32 1 2 C0.67 2.99 0.34 3.98 0 5 C-0.66 5 -1.32 5 -2 5 C-2.061875 5.598125 -2.12375 6.19625 -2.1875 6.8125 C-3.37985843 10.02269579 -4.92495316 10.52654006 -8 12 C-10.97482031 13.08628279 -13.97291596 14.07011144 -17 15 C-13.65293006 11.53121842 -10.06047602 8.67570111 -6.21875 5.78125 C-3.98110052 3.98482718 -1.99110199 2.06350569 0 0 Z " fill="#C18372" transform="translate(857,1037)"/>
<path d="M0 0 C4.0985356 0.60272582 8.03207619 1.83296358 12 3 C12 3.66 12 4.32 12 5 C13.32 5.33 14.64 5.66 16 6 C16.1875 8.875 16.1875 8.875 16 12 C15.01 12.66 14.02 13.32 13 14 C13.66 11.69 14.32 9.38 15 7 C14.41992188 6.86980469 13.83984375 6.73960937 13.2421875 6.60546875 C11.07193895 6.01942602 9.17587004 5.22262506 7.125 4.3125 C3.86505584 3.04270902 3.10567392 2.97546855 -0.5 3.8125 C-1.7375 4.4003125 -1.7375 4.4003125 -3 5 C-1.125 1.125 -1.125 1.125 0 0 Z " fill="#6F5B56" transform="translate(849,936)"/>
<path d="M0 0 C-0.33 1.32 -0.66 2.64 -1 4 C-1.33 3.01 -1.66 2.02 -2 1 C-8.44897774 1.53741481 -14.32541176 3.32541176 -19 8 C-18.42775356 4.68097062 -17.53290099 3.19518086 -15 1 C-9.69343451 -1.79760356 -5.53169251 -2.76584625 0 0 Z " fill="#996F63" transform="translate(789,938)"/>
<path d="M0 0 C0.99 0.495 0.99 0.495 2 1 C2 1.99 2 2.98 2 4 C2.66 4 3.32 4 4 4 C4.33 6.97 4.66 9.94 5 13 C5.66 13 6.32 13 7 13 C7 18.94 7 24.88 7 31 C6.67 31 6.34 31 6 31 C5.97421875 30.10539063 5.9484375 29.21078125 5.921875 28.2890625 C5.59271969 21.27206985 4.84030622 15.59650457 1.921875 9.19921875 C0.633696 6.12614766 0.28738484 3.30492563 0 0 Z " fill="#88665E" transform="translate(859,987)"/>
<path d="M0 0 C1.4731994 2.74997221 2.22404875 4.89619499 3 8 C7.29 8 11.58 8 16 8 C16.33 5.69 16.66 3.38 17 1 C17.33 1 17.66 1 18 1 C17.67 3.97 17.34 6.94 17 10 C14.35409986 10.02684679 11.70846904 10.04676357 9.0625 10.0625 C7.93038086 10.07506836 7.93038086 10.07506836 6.77539062 10.08789062 C4.85005687 10.09652441 2.92464419 10.05224333 1 10 C0 9 0 9 -0.09765625 6.93359375 C-0.08605469 6.10988281 -0.07445312 5.28617188 -0.0625 4.4375 C-0.05347656 3.61121094 -0.04445313 2.78492188 -0.03515625 1.93359375 C-0.02355469 1.29550781 -0.01195312 0.65742187 0 0 Z " fill="#C58371" transform="translate(808,1081)"/>
<path d="M0 0 C2.55028983 1.27514492 2.93081711 2.40341297 4 5 C4 5.99 4 6.98 4 8 C4.66 8 5.32 8 6 8 C8 11 8 11 8 13.4375 C6.37679456 17.59696393 2.85168535 19.07415733 -1 21 C0.36983503 17.83884224 0.9890638 17.0072908 4 15 C4.90263233 10.61578584 2.93069067 7.5026084 0.875 3.76953125 C0 2 0 2 0 0 Z " fill="#A17265" transform="translate(884,963)"/>
<path d="M0 0 C0.33 0 0.66 0 1 0 C1.70048208 7.42511009 -0.62918387 12.4509858 -4 19 C-4.66 19 -5.32 19 -6 19 C-5.34 15.7 -4.68 12.4 -4 9 C-3.34 9 -2.68 9 -2 9 C-1.34 6.03 -0.68 3.06 0 0 Z " fill="#A57567" transform="translate(864,1018)"/>
<path d="M0 0 C0.99 0.33 1.98 0.66 3 1 C3 1.66 3 2.32 3 3 C3.99 3.33 4.98 3.66 6 4 C6.14285714 12.57142857 6.14285714 12.57142857 5 16 C3.35 16.33 1.7 16.66 0 17 C0 16.34 0 15.68 0 15 C0.99 14.34 1.98 13.68 3 13 C3.57074351 7.95843228 2.90822678 5.11998794 0 1 C0 0.67 0 0.34 0 0 Z " fill="#A37366" transform="translate(750,1021)"/>
<path d="M0 0 C0.99 0.33 1.98 0.66 3 1 C4.45424408 4.48850459 4.16792582 8.33949133 4.1875 12.0625 C4.20167969 13.29097656 4.21585938 14.51945313 4.23046875 15.78515625 C4 19 4 19 2 22 C1.93941406 20.91460938 1.87882813 19.82921875 1.81640625 18.7109375 C1.73193936 17.26561514 1.64729449 15.82030318 1.5625 14.375 C1.52318359 13.66214844 1.48386719 12.94929687 1.44335938 12.21484375 C1.19690319 8.08196318 0.76529947 4.07730976 0 0 Z " fill="#715C57" transform="translate(834,998)"/>
<path d="M0 0 C2.5625 1.5 2.5625 1.5 4 3 C3.67 3.66 3.34 4.32 3 5 C2.505 4.67 2.01 4.34 1.5 4 C-2.02293509 2.59082596 -5.30195696 2.27030952 -9 3 C-11.38709367 4.44534997 -13.00415061 6.00415061 -15 8 C-14.38722388 5.03824877 -13.74627478 3.61941217 -12 1 C-7.96733389 -0.34422204 -4.21994677 -0.45703395 0 0 Z " fill="#976D63" transform="translate(802,1073)"/>
<path d="M0 0 C0.33 0 0.66 0 1 0 C1.04898438 0.60328125 1.09796875 1.2065625 1.1484375 1.828125 C1.22320313 2.62734375 1.29796875 3.4265625 1.375 4.25 C1.44460938 5.03890625 1.51421875 5.8278125 1.5859375 6.640625 C1.88990044 9.03291991 1.88990044 9.03291991 3.0625 11.125 C4.3487352 13.69747041 3.75021836 15.2992139 3 18 C2.34 18 1.68 18 1 18 C1 15.69 1 13.38 1 11 C0.34 11 -0.32 11 -1 11 C-1.02688151 9.35425434 -1.04634123 7.70838587 -1.0625 6.0625 C-1.07410156 5.14597656 -1.08570313 4.22945312 -1.09765625 3.28515625 C-1 1 -1 1 0 0 Z " fill="#BA7E6D" transform="translate(860,1060)"/>
<path d="M0 0 C0.598125 0.309375 1.19625 0.61875 1.8125 0.9375 C5.66244012 2.80747092 8.63914408 3.13556323 12.875 3.125 C13.90367187 3.12757812 14.93234375 3.13015625 15.9921875 3.1328125 C18.774648 3.00995061 21.29239874 2.62944236 24 2 C23 4 23 4 20.0625 5.125 C14.92151783 6.42611277 8.85173838 7.56986786 4.02734375 4.9140625 C2.375 3.5625 2.375 3.5625 0 1 C0 0.67 0 0.34 0 0 Z " fill="#9F7265" transform="translate(804,1026)"/>
<path d="M0 0 C0.99 0 1.98 0 3 0 C2.95359375 0.58007812 2.9071875 1.16015625 2.859375 1.7578125 C2.58987432 7.59057731 3.28782564 10.4757875 7 15 C4.97954558 14.39816251 2.97888961 13.72693904 1 13 C-0.32229189 10.35541621 -0.09677194 8.32238699 -0.0625 5.375 C-0.05347656 4.37210938 -0.04445313 3.36921875 -0.03515625 2.3359375 C-0.02355469 1.56507813 -0.01195312 0.79421875 0 0 Z " fill="#AF786A" transform="translate(859,950)"/>
<path d="M0 0 C0.66 0.33 1.32 0.66 2 1 C1.67 1.33 1.34 1.66 1 2 C0.56212287 5.85331874 0.63420279 7.49260386 2.9375 10.6875 C3.618125 11.450625 4.29875 12.21375 5 13 C5.33 13.99 5.66 14.98 6 16 C7.65 16.33 9.3 16.66 11 17 C11 17.33 11 17.66 11 18 C8.1875 18.25 8.1875 18.25 5 18 C3.375 16.5 3.375 16.5 2 14 C1.63648438 13.38253906 1.27296875 12.76507812 0.8984375 12.12890625 C-2.05231256 6.81956345 -2.05231256 6.81956345 -1.8125 3.0625 C-1 1 -1 1 0 0 Z " fill="#7D605A" transform="translate(744,1040)"/>
<path d="M0 0 C1.98 0.99 1.98 0.99 4 2 C4 2.66 4 3.32 4 4 C5.74991334 4.02715383 7.49994945 4.04646551 9.25 4.0625 C10.22453125 4.07410156 11.1990625 4.08570313 12.203125 4.09765625 C14.65758678 4.01195577 16.66168914 3.70706066 19 3 C19 3.66 19 4.32 19 5 C15.76085771 7.15942819 14.75140267 7.27232978 11 7.25 C10.13375 7.25515625 9.2675 7.2603125 8.375 7.265625 C6 7 6 7 3 5 C3 4.34 3 3.68 3 3 C2.01 2.67 1.02 2.34 0 2 C0 1.34 0 0.68 0 0 Z " fill="#C88571" transform="translate(787,941)"/>
<path d="M0 0 C0.66 0 1.32 0 2 0 C2 0.66 2 1.32 2 2 C6.02992782 1.44687265 10.02022924 0.8441938 14 0 C12.34387276 3.31225448 9.35502069 3.76982575 6 5 C3.0625 5.1875 3.0625 5.1875 1 5 C0.67 3.35 0.34 1.7 0 0 Z " fill="#B07B6B" transform="translate(847,1079)"/>
<path d="M0 0 C0.33 0 0.66 0 1 0 C1.18175781 0.89203125 1.36351562 1.7840625 1.55078125 2.703125 C1.80214844 3.87359375 2.05351563 5.0440625 2.3125 6.25 C2.55613281 7.41015625 2.79976562 8.5703125 3.05078125 9.765625 C3.96557824 12.88271103 4.9776848 14.53016967 7 17 C7 17.66 7 18.32 7 19 C4.34151248 18.00581355 3.22455784 17.45833261 1.953125 14.86328125 C0.54035374 9.73806108 -0.3468525 5.318405 0 0 Z " fill="#CA8572" transform="translate(769,1018)"/>
<path d="M0 0 C0.33 0 0.66 0 1 0 C2 3 3 6 4 9 C4.66 9.33 5.32 9.66 6 10 C2.64404172 9.40072174 0.62198774 8.15377564 -2 6 C-1.125 1.125 -1.125 1.125 0 0 Z " fill="#BD7E6A" transform="translate(745,971)"/>
<path d="M0 0 C0.33 0.99 0.66 1.98 1 3 C-0.78524649 4.19713017 -2.5784028 5.38247279 -4.375 6.5625 C-5.87160156 7.55443359 -5.87160156 7.55443359 -7.3984375 8.56640625 C-8.25695312 9.03949219 -9.11546875 9.51257812 -10 10 C-10.66 9.67 -11.32 9.34 -12 9 C-8.04 6.03 -4.08 3.06 0 0 Z " fill="#8B6960" transform="translate(852,1042)"/>
<path d="M0 0 C0 3 0 3 -1.75 5.04296875 C-2.4925 5.75066406 -3.235 6.45835937 -4 7.1875 C-4.7425 7.90292969 -5.485 8.61835937 -6.25 9.35546875 C-7.11625 10.16951172 -7.11625 10.16951172 -8 11 C-8.66 10.67 -9.32 10.34 -10 10 C-8.06790266 6.32901505 -6.78072201 4.65406588 -3 3 C-1.29078411 1.4587688 -1.29078411 1.4587688 0 0 Z " fill="#4B4A4B" transform="translate(789,971)"/>
<path d="M0 0 C3.81684226 1.55500981 6.19195732 4.03595495 9 7 C6.69 6.67 4.38 6.34 2 6 C1.34 4.02 0.68 2.04 0 0 Z " fill="#986F64" transform="translate(782,1043)"/>
<path d="M0 0 C5.03985731 0.44469329 7.37634988 2.71343362 11 6 C7.61121488 6 6.60242783 5.35638802 3.8125 3.5625 C2.73935547 2.88380859 2.73935547 2.88380859 1.64453125 2.19140625 C1.10183594 1.79824219 0.55914063 1.40507813 0 1 C0 0.67 0 0.34 0 0 Z " fill="#9C7065" transform="translate(838,967)"/>
<path d="M0 0 C1 2 1 2 0.3125 4.9375 C-1.06192878 8.14450048 -2.06205603 9.23723362 -5 11 C-4.67 9.35 -4.34 7.7 -4 6 C-3.34 6 -2.68 6 -2 6 C-1.34 4.02 -0.68 2.04 0 0 Z " fill="#CE8975" transform="translate(791,990)"/>
<path d="M0 0 C5.75 1.625 5.75 1.625 8 5 C5.36 4.34 2.72 3.68 0 3 C0 2.01 0 1.02 0 0 Z " fill="#9E7165" transform="translate(830,980)"/>
<path d="M0 0 C2.5 0.3125 2.5 0.3125 5 1 C5.33 1.66 5.66 2.32 6 3 C4.329375 3.2165625 4.329375 3.2165625 2.625 3.4375 C-0.82142047 3.78372035 -0.82142047 3.78372035 -3 5 C-1.125 1.125 -1.125 1.125 0 0 Z " fill="#AC7867" transform="translate(849,936)"/>
<path d="M0 0 C0.33 0 0.66 0 1 0 C1 2.97 1 5.94 1 9 C-0.65 9.33 -2.3 9.66 -4 10 C-4 9.34 -4 8.68 -4 8 C-3.01 7.34 -2.02 6.68 -1 6 C-0.26656572 2.93443402 -0.26656572 2.93443402 0 0 Z " fill="#976E62" transform="translate(754,1028)"/>
<path d="M0 0 C-1.39332574 3.36720387 -2.9789286 4.9859524 -6 7 C-5.37162381 3.35541809 -4.14650034 0 0 0 Z " fill="#444648" transform="translate(834,1075)"/>
<path d="M0 0 C1.32 0 2.64 0 4 0 C5.25664978 2.90600261 6 4.79604584 6 8 C4.02 5.36 2.04 2.72 0 0 Z " fill="#A57366" transform="translate(841,1074)"/>
<path d="M0 0 C2.64 0 5.28 0 8 0 C8 0.66 8 1.32 8 2 C8.99 2.33 9.98 2.66 11 3 C6.94393835 2.53199289 3.53411321 2.12046792 0 0 Z " fill="#735C57" transform="translate(737,1018)"/>
<path d="M0 0 C-4.455 1.485 -4.455 1.485 -9 3 C-9 2.01 -9 1.02 -9 0 C-3.375 -1.125 -3.375 -1.125 0 0 Z " fill="#CE8A77" transform="translate(803,964)"/>
</svg>
